# xmcd
#
# Track frame offsets: 
#        150
#        17963
#        32594
#        46114
#        61877
#        82107
#        104005
#        117886
#        130787
#        147459
#        165529
#        179329
#
# Disc length: 2497 seconds
#
# Revision: 0
# Processed by: cddbd v1.5.2PL0 Copyright (c) Steve Scherf et al.
# Submitted via: ExactAudioCopy v0.99pb5
#
DISCID=a209bf0c
DTITLE=Bluegrass Etc - Classics
DYEAR=2006
DGENRE=Bluegrass
TTITLE0=Monroe's Hornpipe
TTITLE1=Leather Britches
TTITLE2=Dixie
TTITLE3=Salt Creek
TTITLE4=Soldier's Joy
TTITLE5=Soldier's, Fisher's, Whiskey Medley
TTITLE6=Blackberry Blossom
TTITLE7=Fireball Mail
TTITLE8=Turkey in the Straw
TTITLE9=Ashoken Farewell
TTITLE10=Black Mtn. Rag
TTITLE11=Star Spangled Banner
EXTD=
EXTT0=
EXTT1=
EXTT2=
EXTT3=
EXTT4=
EXTT5=
EXTT6=
EXTT7=
EXTT8=
EXTT9=
EXTT10=
EXTT11=
PLAYORDER=
